<svg xmlns="http://www.w3.org/2000/svg" xmlns:xlink="http://www.w3.org/1999/xlink" width="32pt" height="32pt" version="1.1" viewBox="0 0 32 32"><defs><clipPath id="b"><path d="M0 0h32v32H0z"/></clipPath><clipPath id="c"><path d="M0 0h32v32H0z"/></clipPath><mask id="f"><g filter="url(#a)"><path d="M0 0h32v32H0z" fill="#000" fill-opacity=".4" stroke="none"/></g></mask><mask id="d"><g filter="url(#a)"><path d="M0 0h32v32H0z" fill="#000" fill-opacity=".2" stroke="none"/></g></mask><g id="e" clip-path="url(#b)"><path d="M32 16a16 16 0 1 1-32 0 16 16 0 0 1 32 0zm0 0" fill="#72bec7" fill-opacity="1" fill-rule="nonzero" stroke="none"/></g><g id="g" clip-path="url(#c)"><use mask="url(#d)" xlink:href="#e"/></g><filter id="a" width="100%" height="100%" x="0%" y="0%" filterUnits="objectBoundingBox"><feColorMatrix in="SourceGraphic" type="matrix" values="0 0 0 0 1 0 0 0 0 1 0 0 0 0 1 0 0 0 1 0"/></filter></defs><use mask="url(#f)" xlink:href="#g"/><path d="M9.6 12.9a.4.4 0 0 1 .7 0l1.2 2.7h3.2l.3.1.3.5.3-.5.3-.1h.6l1.4-4a.4.4 0 0 1 .7 0l1.2 5.8 1.2-4.8.4-.2c.1 0 .3 0 .3.2l1.2 3.8.7-1.2.3-.2h2.7c.3-1.7 0-3.5-.8-5.1-1.1-2-3-3.3-4.8-3.3-1.3 0-3.2.6-5 3.4-1.7-2.8-3.5-3.4-4.9-3.4-1.8 0-3.6 1.3-4.7 3.3a8.2 8.2 0 0 0-.7 5.7h2.5zm0 0" fill="#a2dff2" fill-opacity="1" fill-rule="nonzero"/><path d="M23.1 17.6a.4.4 0 0 1-.6 0l-1-3.4-1.4 5c0 .2-.2.3-.4.3a.4.4 0 0 1-.3-.3l-1.2-6-1.1 3c0 .2-.2.3-.3.3H16l-.5.7-.3.2c-.1 0-.2 0-.3-.2l-.5-.7h-3.3l-.3-.3-1-2.2-1.1 2.3-.4.2H6l.8 1.7c1.7 2.6 4.7 5 9.2 7.2h.2c4.5-2.2 7.6-4.6 9.3-7.2.4-.7.8-1.5 1-2.3H24zm0 0" fill="#a2dff2" fill-opacity="1" fill-rule="nonzero"/></svg>